<svg width="32" height="32" fill="none" xmlns="http://www.w3.org/2000/svg"><path d="M16 29.334c-1.866 0-3.61-.35-5.233-1.05a13.465 13.465 0 0 1-4.233-2.85c-1.2-1.2-2.145-2.617-2.834-4.25-.689-1.634-1.033-3.384-1.033-5.25 0-1.867.344-3.606 1.033-5.217A13.285 13.285 0 0 1 6.534 6.5a12.99 12.99 0 0 1 4.233-2.816c1.622-.678 3.367-1.017 5.233-1.017 1.867 0 3.611.339 5.234 1.017A13.013 13.013 0 0 1 25.467 6.5c1.2 1.2 2.144 2.606 2.833 4.217.69 1.611 1.034 3.35 1.034 5.217 0 1.866-.345 3.616-1.034 5.25-.689 1.633-1.633 3.05-2.833 4.25-1.2 1.2-2.611 2.15-4.233 2.85-1.623.7-3.367 1.05-5.234 1.05Zm0-1.934a11.07 11.07 0 0 0 1.95-2.75c.523-1.033.95-2.26 1.284-3.683H12.8c.311 1.333.728 2.533 1.25 3.6A11.357 11.357 0 0 0 16 27.4Zm-2.833-.4a15.93 15.93 0 0 1-1.433-2.733c-.4-.978-.734-2.078-1-3.3h-5c.844 1.578 1.822 2.817 2.933 3.717 1.111.9 2.611 1.672 4.5 2.316Zm5.7-.033a13.347 13.347 0 0 0 4.317-2.3 11.94 11.94 0 0 0 3.083-3.7H21.3a24.163 24.163 0 0 1-1.016 3.267 15.14 15.14 0 0 1-1.417 2.733Zm-13.8-8h5.3c-.067-.6-.106-1.139-.117-1.617-.01-.478-.016-.95-.016-1.416 0-.556.01-1.05.033-1.484.022-.433.067-.916.133-1.45H5.067a9.72 9.72 0 0 0-.317 1.434 11.68 11.68 0 0 0-.083 1.5c0 .577.028 1.094.083 1.55.056.455.161.95.317 1.483Zm7.367 0H19.6c.09-.689.145-1.25.167-1.683a26.411 26.411 0 0 0 0-2.634A23.467 23.467 0 0 0 19.6 13h-7.166a23.467 23.467 0 0 0-.167 1.65 26.411 26.411 0 0 0 0 2.633c.022.434.078.995.167 1.684Zm9.166 0h5.334a9.396 9.396 0 0 0 .316-1.483c.056-.456.084-.973.084-1.55 0-.578-.028-1.078-.084-1.5A9.719 9.719 0 0 0 26.934 13h-5.3c.066.778.11 1.373.133 1.784.022.41.033.794.033 1.15 0 .489-.016.95-.05 1.383-.033.433-.083.983-.15 1.65ZM21.267 11h5c-.733-1.533-1.739-2.81-3.017-3.833C21.973 6.145 20.5 5.423 18.834 5a14.533 14.533 0 0 1 1.416 2.667c.39.956.728 2.067 1.017 3.333ZM12.8 11h6.467a13.006 13.006 0 0 0-1.233-3.416A13.637 13.637 0 0 0 16 4.667c-.71.6-1.31 1.389-1.8 2.367-.489.977-.955 2.3-1.4 3.966Zm-7.066 0h5.033c.244-1.2.556-2.272.933-3.216.378-.945.856-1.861 1.434-2.75-1.667.422-3.123 1.133-4.367 2.133-1.244 1-2.256 2.278-3.033 3.833Z" fill="currentColor"/></svg>